<mxfile host="app.diagrams.net" agent="Mozilla/5.0 (Windows NT 10.0; Win64; x64) AppleWebKit/537.36 (KHTML, like Gecko) Chrome/130.0.0.0 Safari/537.36" version="25.0.3">
  <diagram name="第 1 页" id="Qo05anvVhtGKLyieYhg1">
    <mxGraphModel dx="1984" dy="812" grid="1" gridSize="10" guides="1" tooltips="1" connect="1" arrows="1" fold="1" page="1" pageScale="1" pageWidth="827" pageHeight="1169" math="0" shadow="0">
      <root>
        <mxCell id="0" />
        <mxCell id="1" parent="0" />
        <mxCell id="EUxthIYtTsblbdW1jSn8-16" value="" style="rounded=0;whiteSpace=wrap;html=1;fillColor=#d5e8d4;strokeColor=#82b366;" vertex="1" parent="1">
          <mxGeometry x="-140" y="290" width="540" height="330" as="geometry" />
        </mxCell>
        <mxCell id="EUxthIYtTsblbdW1jSn8-14" style="edgeStyle=orthogonalEdgeStyle;rounded=0;orthogonalLoop=1;jettySize=auto;html=1;exitX=0.5;exitY=1;exitDx=0;exitDy=0;dashed=1;" edge="1" parent="1" source="EUxthIYtTsblbdW1jSn8-1">
          <mxGeometry relative="1" as="geometry">
            <mxPoint x="120" y="520" as="targetPoint" />
          </mxGeometry>
        </mxCell>
        <mxCell id="EUxthIYtTsblbdW1jSn8-1" value="会员折扣" style="rounded=0;whiteSpace=wrap;html=1;" vertex="1" parent="1">
          <mxGeometry x="60" y="420" width="120" height="60" as="geometry" />
        </mxCell>
        <mxCell id="EUxthIYtTsblbdW1jSn8-2" value="付费会员折扣" style="rounded=0;whiteSpace=wrap;html=1;" vertex="1" parent="1">
          <mxGeometry x="60" y="525" width="120" height="60" as="geometry" />
        </mxCell>
        <mxCell id="EUxthIYtTsblbdW1jSn8-3" value="预定义折扣" style="rounded=0;whiteSpace=wrap;html=1;" vertex="1" parent="1">
          <mxGeometry x="-110" y="420" width="120" height="60" as="geometry" />
        </mxCell>
        <mxCell id="EUxthIYtTsblbdW1jSn8-4" value="套餐" style="rounded=0;whiteSpace=wrap;html=1;" vertex="1" parent="1">
          <mxGeometry x="-330" y="420" width="120" height="60" as="geometry" />
        </mxCell>
        <mxCell id="EUxthIYtTsblbdW1jSn8-5" value="临时授权折扣" style="rounded=0;whiteSpace=wrap;html=1;" vertex="1" parent="1">
          <mxGeometry x="240" y="420" width="120" height="60" as="geometry" />
        </mxCell>
        <mxCell id="EUxthIYtTsblbdW1jSn8-6" value="整单一口价" style="rounded=0;whiteSpace=wrap;html=1;" vertex="1" parent="1">
          <mxGeometry x="670" y="420" width="120" height="60" as="geometry" />
        </mxCell>
        <mxCell id="EUxthIYtTsblbdW1jSn8-7" value="镜片一口价" style="rounded=0;whiteSpace=wrap;html=1;" vertex="1" parent="1">
          <mxGeometry x="470" y="420" width="120" height="60" as="geometry" />
        </mxCell>
        <mxCell id="EUxthIYtTsblbdW1jSn8-8" value="积分抵现" style="rounded=0;whiteSpace=wrap;html=1;" vertex="1" parent="1">
          <mxGeometry x="630" y="620" width="120" height="60" as="geometry" />
        </mxCell>
        <mxCell id="EUxthIYtTsblbdW1jSn8-9" value="优惠券核销" style="rounded=0;whiteSpace=wrap;html=1;" vertex="1" parent="1">
          <mxGeometry x="240" y="840" width="120" height="60" as="geometry" />
        </mxCell>
        <mxCell id="EUxthIYtTsblbdW1jSn8-10" value="互联网/集团券核销" style="rounded=0;whiteSpace=wrap;html=1;" vertex="1" parent="1">
          <mxGeometry x="414" y="840" width="120" height="60" as="geometry" />
        </mxCell>
        <mxCell id="EUxthIYtTsblbdW1jSn8-11" value="(长沙)电子券" style="rounded=0;whiteSpace=wrap;html=1;" vertex="1" parent="1">
          <mxGeometry x="590" y="840" width="120" height="60" as="geometry" />
        </mxCell>
        <mxCell id="EUxthIYtTsblbdW1jSn8-12" value="一级折扣" style="rounded=1;whiteSpace=wrap;html=1;" vertex="1" parent="1">
          <mxGeometry x="60" y="320" width="120" height="60" as="geometry" />
        </mxCell>
      </root>
    </mxGraphModel>
  </diagram>
</mxfile>
